<?xml version="1.0" standalone="no"?><!DOCTYPE svg PUBLIC "-//W3C//DTD SVG 1.1//EN" "http://www.w3.org/Graphics/SVG/1.1/DTD/svg11.dtd"><svg t="1489730754790" class="icon" style="" viewBox="0 0 1024 1024" version="1.1" xmlns="http://www.w3.org/2000/svg" p-id="2255" xmlns:xlink="http://www.w3.org/1999/xlink" width="200" height="200"><defs><style type="text/css"></style></defs><path d="M890.92096 747.795456 383.327232 747.795456c-19.218432 0-34.801664 15.584256-34.801664 34.842624 0 19.219456 15.584256 34.802688 34.801664 34.802688L890.92096 817.440768c19.262464 0 34.843648-15.584256 34.843648-34.802688C925.764608 763.378688 910.183424 747.795456 890.92096 747.795456z" p-id="2256" fill="#42d411"></path><path d="M890.92096 477.524992 383.327232 477.524992c-19.218432 0-34.801664 15.58528-34.801664 34.842624 0 19.258368 15.584256 34.803712 34.801664 34.803712L890.92096 547.171328c19.262464 0 34.843648-15.545344 34.843648-34.803712C925.764608 493.109248 910.183424 477.524992 890.92096 477.524992z" p-id="2257" fill="#42d411"></path><path d="M383.327232 276.9408 890.92096 276.9408c19.262464 0 34.843648-15.583232 34.843648-34.842624 0-19.258368-15.582208-34.843648-34.843648-34.843648L383.327232 207.254528c-19.218432 0-34.801664 15.58528-34.801664 34.843648C348.524544 261.357568 364.1088 276.9408 383.327232 276.9408z" p-id="2258" fill="#42d411"></path><path d="M220.051456 164.092928l-86.322176 0c-19.260416 0-34.8416 15.58528-34.8416 34.803712l0 86.361088c0 19.219456 15.582208 34.884608 34.8416 34.884608l86.322176 0c19.260416 0 34.843648-15.666176 34.843648-34.884608l0-86.361088C254.895104 179.678208 239.310848 164.092928 220.051456 164.092928z" p-id="2259" fill="#42d411"></path><path d="M220.051456 434.32448l-86.322176 0c-19.260416 0-34.8416 15.624192-34.8416 34.88256l0 86.322176c0 19.258368 15.582208 34.842624 34.8416 34.842624l86.322176 0c19.260416 0 34.843648-15.58528 34.843648-34.842624l0-86.322176C254.895104 449.948672 239.310848 434.32448 220.051456 434.32448z" p-id="2260" fill="#42d411"></path><path d="M220.051456 704.591872l-86.322176 0c-19.260416 0-34.8416 15.58528-34.8416 34.842624l0 86.36416c0 19.218432 15.582208 34.801664 34.8416 34.801664l86.322176 0c19.260416 0 34.843648-15.584256 34.843648-34.801664l0-86.36416C254.895104 720.177152 239.310848 704.591872 220.051456 704.591872z" p-id="2261" fill="#42d411"></path></svg>